# xmcd CD database file
#
# Track frame offsets:
#	150
#	3714
#	9357
#	15297
#	23424
#	31389
#
# Disc length: 513 seconds
#
# Revision: 0
# Processed by: cddbd v1.4PL0 Copyright (c) Steve Scherf et al.
# Submitted via: CDex 1.51
#
DISCID=2e01ff06
DTITLE=Palmdale High School - Dixieland Band
DYEAR=2001
DGENRE=Jazz
TTITLE0=Bill Bailey (Won't You Please Come Home?)
TTITLE1=Alabama Jubilee
TTITLE2=Basin Street Blues
TTITLE3=Do You Know What it Means to Miss New Orleans?
TTITLE4=St. James Infirmary
TTITLE5=When the Saints Go Marchin' In
EXTD=YEAR: 2001
EXTT0=
EXTT1=
EXTT2=
EXTT3=
EXTT4=
EXTT5=
PLAYORDER=
